# xmcd
# 
# Track frame offsets:
#     150
#     21505
#     45458
#     71560
#     84958
#     139711
# 
# Disc length: 2121
# 
# Revision: 1
# Processed by: cddbd v1.5.2PL0 Copyright (c) Steve Scherf et al.
# Submitted via: BonkEnc v1.0.8
# 
DISCID=48084706
DTITLE=Eddie Fisher - Eddie Fisher and The Next Hundred Years
DYEAR=1970
DGENRE=Soul Jazz
TTITLE0=Jeremiah Pucket
TTITLE1=Land Of Our Father
TTITLE2=Either Or
TTITLE3=Another Episode (in the continuing story of Zeke and the Man)
TTITLE4=Beautiful Things
TTITLE5=East St. Louis Blues
EXTD=YEAR: 1970
EXTT0=
EXTT1=
EXTT2=
EXTT3=
EXTT4=
EXTT5=
PLAYORDER=
